<?xml version="1.0" standalone="no"?>
<!DOCTYPE svg PUBLIC "-//W3C//DTD SVG 20010904//EN"
 "http://www.w3.org/TR/2001/REC-SVG-20010904/DTD/svg10.dtd">
<svg version="1.0" xmlns="http://www.w3.org/2000/svg"
 width="1138.000000pt" height="1166.000000pt" viewBox="0 0 1138.000000 1166.000000"
 preserveAspectRatio="xMidYMid meet">
<metadata>
Created by potrace 1.16, written by Peter Selinger 2001-2019
</metadata>
<g transform="translate(0.000000,1166.000000) scale(0.100000,-0.100000)"
fill="#000000" stroke="none">
<path d="M4850 11273 c-81 -42 -106 -88 -130 -244 -77 -505 -266 -999 -573
-1496 -64 -104 -84 -130 -92 -118 -5 8 -29 50 -53 93 -129 235 -395 507 -697
711 -474 320 -954 449 -1320 356 -89 -22 -231 -96 -307 -159 -167 -139 -281
-350 -339 -632 -26 -125 -36 -428 -20 -600 23 -254 78 -498 165 -728 14 -37
26 -72 26 -77 0 -5 -33 -9 -74 -9 -248 0 -619 -124 -926 -310 -267 -161 -343
-245 -327 -364 14 -103 229 -473 382 -656 157 -188 376 -366 546 -443 l76 -35
6 -134 c9 -198 53 -373 138 -557 21 -46 36 -87 33 -92 -3 -5 -18 -9 -34 -9
-59 0 -267 -62 -366 -109 -147 -70 -245 -140 -365 -260 -200 -201 -318 -423
-381 -715 -28 -134 -30 -383 -4 -531 96 -534 486 -968 980 -1089 l89 -22 242
-960 c133 -527 250 -984 260 -1014 24 -72 88 -201 135 -270 133 -194 348 -347
580 -411 l85 -24 2915 -3 c2131 -2 2937 0 2995 8 360 51 680 310 814 659 16
42 140 517 276 1056 136 539 248 981 248 981 1 1 58 20 125 43 426 141 768
444 980 866 117 233 177 474 189 755 28 697 -354 1357 -962 1658 -188 93 -359
141 -580 163 -66 7 -121 13 -123 15 -2 1 10 55 26 121 91 359 50 758 -110
1078 -139 276 -368 515 -629 657 -173 94 -372 148 -574 155 -123 5 -407 -13
-533 -33 -25 -4 -34 -1 -38 13 -103 300 -322 743 -526 1061 -515 803 -1192
1373 -1931 1627 -180 61 -225 65 -297 28z m420 -540 c685 -323 1291 -968 1729
-1841 53 -106 174 -383 169 -387 -2 -1 -68 -7 -146 -14 -159 -13 -198 -26
-249 -84 -95 -109 -42 -297 96 -338 53 -16 366 3 846 52 440 45 548 40 732
-31 223 -86 412 -260 531 -488 135 -262 166 -537 92 -826 -18 -72 -86 -242
-99 -250 -4 -3 -83 -12 -176 -21 -94 -9 -186 -21 -205 -27 -56 -17 -96 -54
-126 -113 -22 -47 -26 -64 -21 -106 8 -63 46 -131 89 -157 72 -44 91 -44 473
-7 196 19 394 35 439 35 231 0 479 -77 680 -212 92 -62 282 -258 351 -363 94
-145 162 -306 201 -480 25 -112 30 -382 9 -507 -64 -383 -281 -726 -587 -924
-129 -83 -231 -125 -403 -167 l-90 -21 -4070 -3 c-4490 -4 -4164 -8 -4334 57
-264 102 -479 356 -551 652 -30 121 -37 310 -16 421 67 351 292 622 603 727
99 33 102 33 690 90 461 44 474 48 527 133 69 112 31 248 -85 308 -47 23 -94
24 -333 1 l-179 -18 -49 71 c-246 348 -261 847 -36 1221 92 154 216 277 365
366 157 93 148 91 917 169 436 44 706 75 733 85 56 21 90 48 113 94 45 89 34
174 -32 246 -57 62 -115 78 -234 64 -49 -5 -105 -10 -124 -9 l-35 0 39 32
c656 532 1185 1303 1466 2136 49 146 130 447 130 484 0 24 13 20 160 -50z
m-2792 -587 c344 -95 729 -341 1000 -640 149 -165 240 -348 244 -489 1 -51 -2
-59 -39 -104 -23 -26 -97 -102 -164 -169 -328 -319 -604 -499 -1023 -668 -103
-41 -116 -42 -172 -17 -103 47 -235 164 -308 275 -188 284 -318 869 -276 1246
37 343 167 545 380 590 77 16 254 4 358 -24z m-872 -2211 c75 -8 274 -80 274
-99 0 -3 -33 -28 -72 -57 -98 -70 -271 -245 -341 -345 -69 -100 -133 -221
-177 -336 -18 -49 -36 -88 -39 -88 -19 0 -117 68 -186 127 -96 83 -200 205
-282 328 -69 104 -116 185 -111 190 10 10 169 100 230 131 157 79 354 140 498
154 73 7 103 7 206 -5z m1649 -4927 c3 -13 79 -507 170 -1098 91 -591 167
-1085 170 -1097 l5 -23 -473 0 c-406 0 -481 2 -528 16 -101 30 -170 73 -255
158 -133 133 -121 99 -384 1141 -126 501 -230 913 -230 918 0 4 342 7 760 7
l760 0 5 -22z m2085 -1098 l0 -1120 -655 0 -654 0 -6 33 c-17 100 -335 2175
-335 2190 0 16 46 17 825 17 l825 0 0 -1120z m2080 1107 c0 -7 -76 -510 -170
-1117 -93 -607 -170 -1106 -170 -1107 0 -2 -295 -3 -655 -3 l-655 0 0 1120 0
1120 825 0 c664 0 825 -2 825 -13z m1960 9 c0 -2 -103 -413 -229 -913 -254
-1010 -254 -1009 -363 -1127 -75 -83 -158 -138 -255 -170 l-78 -26 -473 0
-474 0 6 27 c3 16 80 514 172 1108 91 594 167 1086 169 1093 4 9 165 12 765
12 418 0 760 -2 760 -4z"/>
<path d="M3986 6569 c-159 -23 -291 -145 -336 -312 -8 -30 -11 -75 -7 -122 14
-194 156 -346 351 -376 172 -27 353 70 430 231 56 118 47 282 -23 391 -91 143
-244 212 -415 188z"/>
<path d="M7206 6569 c-154 -22 -278 -131 -326 -287 -74 -239 83 -484 334 -523
218 -34 441 133 465 350 31 280 -194 499 -473 460z"/>
<path d="M4614 5741 c-51 -23 -112 -94 -120 -139 -4 -19 -4 -85 -1 -146 18
-340 206 -670 500 -876 317 -222 752 -269 1113 -120 276 114 506 335 629 604
66 145 117 403 101 511 -11 67 -55 128 -117 159 l-53 26 -1005 0 c-956 0
-1008 -1 -1047 -19z m1745 -463 c-11 -29 -30 -71 -42 -93 l-22 -40 -633 -3
-633 -2 -34 72 c-18 40 -36 83 -40 96 l-6 22 715 0 716 0 -21 -52z"/>
<path d="M2350 9855 c-64 -20 -123 -74 -150 -136 -62 -145 25 -308 182 -341
49 -10 65 -9 113 6 67 21 126 70 154 130 27 55 28 155 2 211 -50 109 -185 167
-301 130z"/>
<path d="M3041 9349 c-77 -15 -152 -79 -181 -154 -22 -55 -16 -138 14 -198 87
-179 346 -182 437 -5 94 183 -68 397 -270 357z"/>
<path d="M2270 9087 c-49 -16 -133 -102 -148 -153 -27 -91 -5 -187 55 -249 51
-52 105 -75 181 -75 185 0 300 187 217 356 -54 110 -181 160 -305 121z"/>
</g>
</svg>
